<mxfile host="app.diagrams.net" agent="Mozilla/5.0 (Windows NT 10.0; Win64; x64) AppleWebKit/537.36 (KHTML, like Gecko) Chrome/136.0.0.0 Safari/537.36" version="27.0.9">
  <diagram name="Page-1" id="nAPk-9_xj_QzIi2fOYJu">
    <mxGraphModel dx="2700" dy="832" grid="1" gridSize="10" guides="1" tooltips="1" connect="1" arrows="1" fold="1" page="1" pageScale="1" pageWidth="850" pageHeight="1100" math="0" shadow="0">
      <root>
        <mxCell id="0" />
        <mxCell id="1" parent="0" />
        <mxCell id="sqS4_enM3nrR4mZXpXjG-1" value="Instructor" style="rounded=0;whiteSpace=wrap;html=1;" vertex="1" parent="1">
          <mxGeometry x="-405" y="440" width="120" height="60" as="geometry" />
        </mxCell>
        <mxCell id="sqS4_enM3nrR4mZXpXjG-2" value="Estudiante" style="rounded=0;whiteSpace=wrap;html=1;" vertex="1" parent="1">
          <mxGeometry x="780" y="440" width="120" height="60" as="geometry" />
        </mxCell>
        <mxCell id="sqS4_enM3nrR4mZXpXjG-3" value="Cusos" style="rounded=0;whiteSpace=wrap;html=1;" vertex="1" parent="1">
          <mxGeometry x="250" y="440" width="120" height="60" as="geometry" />
        </mxCell>
        <mxCell id="sqS4_enM3nrR4mZXpXjG-4" value="&lt;u&gt;Codigo&lt;/u&gt;" style="ellipse;whiteSpace=wrap;html=1;" vertex="1" parent="1">
          <mxGeometry x="70" y="530" width="120" height="80" as="geometry" />
        </mxCell>
        <mxCell id="sqS4_enM3nrR4mZXpXjG-5" value="Nombre" style="ellipse;whiteSpace=wrap;html=1;" vertex="1" parent="1">
          <mxGeometry x="160" y="640" width="120" height="80" as="geometry" />
        </mxCell>
        <mxCell id="sqS4_enM3nrR4mZXpXjG-6" value="Precio" style="ellipse;whiteSpace=wrap;html=1;" vertex="1" parent="1">
          <mxGeometry x="410" y="530" width="120" height="80" as="geometry" />
        </mxCell>
        <mxCell id="sqS4_enM3nrR4mZXpXjG-8" value="" style="endArrow=none;html=1;rounded=0;exitX=0.5;exitY=0;exitDx=0;exitDy=0;entryX=0.25;entryY=1;entryDx=0;entryDy=0;" edge="1" parent="1" source="sqS4_enM3nrR4mZXpXjG-5" target="sqS4_enM3nrR4mZXpXjG-3">
          <mxGeometry width="50" height="50" relative="1" as="geometry">
            <mxPoint x="200" y="570" as="sourcePoint" />
            <mxPoint x="250" y="520" as="targetPoint" />
          </mxGeometry>
        </mxCell>
        <mxCell id="sqS4_enM3nrR4mZXpXjG-9" value="" style="endArrow=none;html=1;rounded=0;exitX=0;exitY=0;exitDx=0;exitDy=0;entryX=0.75;entryY=1;entryDx=0;entryDy=0;" edge="1" parent="1" source="sqS4_enM3nrR4mZXpXjG-6" target="sqS4_enM3nrR4mZXpXjG-3">
          <mxGeometry width="50" height="50" relative="1" as="geometry">
            <mxPoint x="280" y="602" as="sourcePoint" />
            <mxPoint x="363" y="530" as="targetPoint" />
          </mxGeometry>
        </mxCell>
        <mxCell id="sqS4_enM3nrR4mZXpXjG-10" value="" style="endArrow=none;html=1;rounded=0;exitX=0;exitY=1;exitDx=0;exitDy=0;entryX=1;entryY=0;entryDx=0;entryDy=0;" edge="1" parent="1" source="sqS4_enM3nrR4mZXpXjG-3" target="sqS4_enM3nrR4mZXpXjG-4">
          <mxGeometry width="50" height="50" relative="1" as="geometry">
            <mxPoint x="70" y="512" as="sourcePoint" />
            <mxPoint x="153" y="440" as="targetPoint" />
          </mxGeometry>
        </mxCell>
        <mxCell id="sqS4_enM3nrR4mZXpXjG-11" value="Duracion" style="ellipse;whiteSpace=wrap;html=1;" vertex="1" parent="1">
          <mxGeometry x="340" y="640" width="120" height="80" as="geometry" />
        </mxCell>
        <mxCell id="sqS4_enM3nrR4mZXpXjG-12" value="" style="endArrow=none;html=1;rounded=0;exitX=0.5;exitY=0;exitDx=0;exitDy=0;entryX=0.5;entryY=1;entryDx=0;entryDy=0;" edge="1" parent="1" source="sqS4_enM3nrR4mZXpXjG-11" target="sqS4_enM3nrR4mZXpXjG-3">
          <mxGeometry width="50" height="50" relative="1" as="geometry">
            <mxPoint x="300" y="612" as="sourcePoint" />
            <mxPoint x="403" y="590" as="targetPoint" />
          </mxGeometry>
        </mxCell>
        <mxCell id="sqS4_enM3nrR4mZXpXjG-13" value="Nombre" style="ellipse;whiteSpace=wrap;html=1;" vertex="1" parent="1">
          <mxGeometry x="-480" y="545" width="120" height="80" as="geometry" />
        </mxCell>
        <mxCell id="sqS4_enM3nrR4mZXpXjG-14" value="Nombre" style="ellipse;whiteSpace=wrap;html=1;" vertex="1" parent="1">
          <mxGeometry x="1000" y="390" width="120" height="80" as="geometry" />
        </mxCell>
        <mxCell id="sqS4_enM3nrR4mZXpXjG-15" value="Telefono" style="ellipse;whiteSpace=wrap;html=1;" vertex="1" parent="1">
          <mxGeometry x="-320" y="545" width="120" height="80" as="geometry" />
        </mxCell>
        <mxCell id="sqS4_enM3nrR4mZXpXjG-16" value="" style="endArrow=none;html=1;rounded=0;exitX=0.5;exitY=0;exitDx=0;exitDy=0;entryX=0.5;entryY=1;entryDx=0;entryDy=0;" edge="1" parent="1" source="sqS4_enM3nrR4mZXpXjG-13" target="sqS4_enM3nrR4mZXpXjG-1">
          <mxGeometry width="50" height="50" relative="1" as="geometry">
            <mxPoint x="-395" y="440" as="sourcePoint" />
            <mxPoint x="-345" y="390" as="targetPoint" />
          </mxGeometry>
        </mxCell>
        <mxCell id="sqS4_enM3nrR4mZXpXjG-18" value="Telefono" style="ellipse;whiteSpace=wrap;html=1;" vertex="1" parent="1">
          <mxGeometry x="1000" y="500" width="120" height="80" as="geometry" />
        </mxCell>
        <mxCell id="sqS4_enM3nrR4mZXpXjG-21" value="EnseÃ±ar" style="rhombus;whiteSpace=wrap;html=1;" vertex="1" parent="1">
          <mxGeometry x="-135" y="430" width="160" height="80" as="geometry" />
        </mxCell>
        <mxCell id="sqS4_enM3nrR4mZXpXjG-22" value="" style="endArrow=none;html=1;rounded=0;exitX=0;exitY=0.5;exitDx=0;exitDy=0;entryX=1;entryY=0.5;entryDx=0;entryDy=0;" edge="1" parent="1" source="sqS4_enM3nrR4mZXpXjG-21" target="sqS4_enM3nrR4mZXpXjG-1">
          <mxGeometry width="50" height="50" relative="1" as="geometry">
            <mxPoint x="-240" y="390" as="sourcePoint" />
            <mxPoint x="-190" y="340" as="targetPoint" />
          </mxGeometry>
        </mxCell>
        <mxCell id="sqS4_enM3nrR4mZXpXjG-23" value="" style="endArrow=none;html=1;rounded=0;exitX=0;exitY=0.5;exitDx=0;exitDy=0;entryX=1;entryY=0.5;entryDx=0;entryDy=0;" edge="1" parent="1" source="sqS4_enM3nrR4mZXpXjG-3" target="sqS4_enM3nrR4mZXpXjG-21">
          <mxGeometry width="50" height="50" relative="1" as="geometry">
            <mxPoint x="420" y="470" as="sourcePoint" />
            <mxPoint x="290" y="380" as="targetPoint" />
          </mxGeometry>
        </mxCell>
        <mxCell id="sqS4_enM3nrR4mZXpXjG-25" value="" style="endArrow=none;html=1;rounded=0;exitX=1;exitY=0.5;exitDx=0;exitDy=0;entryX=0;entryY=0.5;entryDx=0;entryDy=0;" edge="1" parent="1" source="sqS4_enM3nrR4mZXpXjG-3" target="sqS4_enM3nrR4mZXpXjG-26">
          <mxGeometry width="50" height="50" relative="1" as="geometry">
            <mxPoint x="425" y="500" as="sourcePoint" />
            <mxPoint x="475" y="450" as="targetPoint" />
          </mxGeometry>
        </mxCell>
        <mxCell id="sqS4_enM3nrR4mZXpXjG-26" value="Tomar" style="rhombus;whiteSpace=wrap;html=1;" vertex="1" parent="1">
          <mxGeometry x="490" y="430" width="160" height="80" as="geometry" />
        </mxCell>
        <mxCell id="sqS4_enM3nrR4mZXpXjG-27" value="" style="endArrow=none;html=1;rounded=0;exitX=1;exitY=0.5;exitDx=0;exitDy=0;entryX=0;entryY=0.5;entryDx=0;entryDy=0;" edge="1" parent="1" source="sqS4_enM3nrR4mZXpXjG-26" target="sqS4_enM3nrR4mZXpXjG-2">
          <mxGeometry width="50" height="50" relative="1" as="geometry">
            <mxPoint x="590" y="550" as="sourcePoint" />
            <mxPoint x="770" y="480" as="targetPoint" />
          </mxGeometry>
        </mxCell>
        <mxCell id="sqS4_enM3nrR4mZXpXjG-28" value="(0:N)" style="text;html=1;align=center;verticalAlign=middle;whiteSpace=wrap;rounded=0;" vertex="1" parent="1">
          <mxGeometry x="180" y="440" width="60" height="30" as="geometry" />
        </mxCell>
        <mxCell id="sqS4_enM3nrR4mZXpXjG-31" value="(1:1)" style="text;html=1;align=center;verticalAlign=middle;whiteSpace=wrap;rounded=0;" vertex="1" parent="1">
          <mxGeometry x="-260" y="440" width="60" height="30" as="geometry" />
        </mxCell>
        <mxCell id="sqS4_enM3nrR4mZXpXjG-32" value="" style="endArrow=none;html=1;rounded=0;exitX=0.5;exitY=0;exitDx=0;exitDy=0;entryX=0.5;entryY=1;entryDx=0;entryDy=0;" edge="1" parent="1" source="sqS4_enM3nrR4mZXpXjG-15" target="sqS4_enM3nrR4mZXpXjG-1">
          <mxGeometry width="50" height="50" relative="1" as="geometry">
            <mxPoint x="-320" y="575" as="sourcePoint" />
            <mxPoint x="-245" y="530" as="targetPoint" />
          </mxGeometry>
        </mxCell>
        <mxCell id="sqS4_enM3nrR4mZXpXjG-33" value="(N:1)" style="text;html=1;align=center;verticalAlign=middle;whiteSpace=wrap;rounded=0;" vertex="1" parent="1">
          <mxGeometry x="-85" y="370" width="60" height="30" as="geometry" />
        </mxCell>
        <mxCell id="sqS4_enM3nrR4mZXpXjG-34" value="(0:N)" style="text;html=1;align=center;verticalAlign=middle;whiteSpace=wrap;rounded=0;" vertex="1" parent="1">
          <mxGeometry x="390" y="430" width="60" height="30" as="geometry" />
        </mxCell>
        <mxCell id="sqS4_enM3nrR4mZXpXjG-35" value="(1:N)" style="text;html=1;align=center;verticalAlign=middle;whiteSpace=wrap;rounded=0;" vertex="1" parent="1">
          <mxGeometry x="710" y="430" width="60" height="30" as="geometry" />
        </mxCell>
        <mxCell id="sqS4_enM3nrR4mZXpXjG-36" value="(N:M)" style="text;html=1;align=center;verticalAlign=middle;whiteSpace=wrap;rounded=0;" vertex="1" parent="1">
          <mxGeometry x="540" y="370" width="60" height="30" as="geometry" />
        </mxCell>
        <mxCell id="sqS4_enM3nrR4mZXpXjG-37" value="" style="endArrow=none;html=1;rounded=0;entryX=0;entryY=0.5;entryDx=0;entryDy=0;exitX=1;exitY=0.5;exitDx=0;exitDy=0;" edge="1" parent="1" source="sqS4_enM3nrR4mZXpXjG-2" target="sqS4_enM3nrR4mZXpXjG-14">
          <mxGeometry width="50" height="50" relative="1" as="geometry">
            <mxPoint x="940" y="480" as="sourcePoint" />
            <mxPoint x="990" y="430" as="targetPoint" />
          </mxGeometry>
        </mxCell>
        <mxCell id="sqS4_enM3nrR4mZXpXjG-38" value="" style="endArrow=none;html=1;rounded=0;entryX=1;entryY=0.5;entryDx=0;entryDy=0;exitX=0;exitY=0.5;exitDx=0;exitDy=0;" edge="1" parent="1" source="sqS4_enM3nrR4mZXpXjG-18" target="sqS4_enM3nrR4mZXpXjG-2">
          <mxGeometry width="50" height="50" relative="1" as="geometry">
            <mxPoint x="900" y="560" as="sourcePoint" />
            <mxPoint x="950" y="510" as="targetPoint" />
          </mxGeometry>
        </mxCell>
      </root>
    </mxGraphModel>
  </diagram>
</mxfile>
